<?xml version="1.0" encoding="UTF-8" standalone="no"?>
<!-- Creator: CorelDRAW X7 -->

<svg
   xmlns:dc="http://purl.org/dc/elements/1.1/"
   xmlns:cc="http://creativecommons.org/ns#"
   xmlns:rdf="http://www.w3.org/1999/02/22-rdf-syntax-ns#"
   xmlns:svg="http://www.w3.org/2000/svg"
   xmlns="http://www.w3.org/2000/svg"
   xmlns:sodipodi="http://sodipodi.sourceforge.net/DTD/sodipodi-0.dtd"
   xmlns:inkscape="http://www.inkscape.org/namespaces/inkscape"
   xml:space="preserve"
   width="304.78214mm"
   height="142.161mm"
   version="1.1"
   style="clip-rule:evenodd;fill-rule:evenodd;image-rendering:optimizeQuality;shape-rendering:geometricPrecision;text-rendering:geometricPrecision"
   viewBox="0 0 30477.813 14215.999"
   id="svg3908"
   sodipodi:docname="scroll-87.svg"
   inkscape:version="0.92.3 (2405546, 2018-03-11)"><title
   id="title3914">Typographic Ornament 87</title><metadata
   id="metadata3912"><rdf:RDF><cc:Work
       rdf:about=""><dc:format>image/svg+xml</dc:format><dc:type
         rdf:resource="http://purl.org/dc/dcmitype/StillImage" /><dc:title>Typographic Ornament 87</dc:title><dc:date>2018-0829</dc:date><dc:creator><cc:Agent><dc:title>Chrstopher J. Fynn</dc:title></cc:Agent></dc:creator><dc:description>SVG Typographic Ornament 
Based on File:Art_of_Bookbinding_p064_decoration.png</dc:description><dc:source>https://commons.wikimedia.org/wiki/File:Art_of_Bookbinding_p064_decoration.png</dc:source><cc:license
         rdf:resource="http://creativecommons.org/publicdomain/zero/1.0/" /></cc:Work><cc:License
       rdf:about="http://creativecommons.org/publicdomain/zero/1.0/"><cc:permits
         rdf:resource="http://creativecommons.org/ns#Reproduction" /><cc:permits
         rdf:resource="http://creativecommons.org/ns#Distribution" /><cc:permits
         rdf:resource="http://creativecommons.org/ns#DerivativeWorks" /></cc:License></rdf:RDF></metadata><sodipodi:namedview
   pagecolor="#ffffff"
   bordercolor="#666666"
   borderopacity="1"
   objecttolerance="10"
   gridtolerance="10"
   guidetolerance="10"
   inkscape:pageopacity="0"
   inkscape:pageshadow="2"
   inkscape:window-width="1920"
   inkscape:window-height="1001"
   id="namedview3910"
   showgrid="false"
   fit-margin-left="0.5"
   fit-margin-right="0.5"
   fit-margin-top="0.5"
   fit-margin-bottom="0.5"
   showborder="false"
   inkscape:zoom="0.34751255"
   inkscape:cx="575.96621"
   inkscape:cy="268.65068"
   inkscape:window-x="-9"
   inkscape:window-y="-9"
   inkscape:window-maximized="1"
   inkscape:current-layer="svg3908" />
 <defs
   id="defs3902"><style
     type="text/css"
     id="style3900">
   <![CDATA[
    .fil0 {fill:black;fill-rule:nonzero}
   ]]>
  </style></defs>
 <g
   id="Layer_x0020_1"
   transform="translate(49.905684,49.999649)">
  <metadata
   id="CorelCorpID_0Corel-Layer" />
  <path
   class="fil0"
   d="m 14745,2343 c -153,-457 -470,-813 -985,-813 -260,0 -647,185 -755,432 305,432 940,610 940,1226 0,1162 -2363,3740 -3048,4819 190,-565 546,-1346 546,-1930 0,-591 -280,-1080 -280,-1651 0,-667 254,-1130 762,-1549 -152,-286 -419,-470 -749,-470 -591,0 -1092,609 -1105,1174 -76,-298 -152,-565 -152,-876 0,-419 70,-1206 647,-1206 458,0 756,393 928,425 234,-70 571,-324 571,-597 0,-813 -991,-1086 -1645,-1086 -641,0 -1657,388 -1657,1156 0,184 76,362 127,533 C 7874,864 6515,324 5048,324 2223,324 0,2432 0,5277 c 0,1175 730,2083 730,3226 0,254 -127,470 -127,717 0,330 102,508 464,508 851,0 1092,-482 1092,-1130 0,-146 -13,-305 -32,-464 1067,591 3613,1061 3613,2604 0,489 -247,736 -736,736 -445,0 -273,-647 -648,-647 -451,0 -730,406 -730,832 0,292 152,577 336,800 -654,-273 -863,-527 -863,-1258 0,-196 222,-914 463,-952 32,25 70,76 102,76 70,0 197,-89 197,-190 0,-312 -476,-356 -686,-356 -857,0 -1391,914 -1391,1689 0,1734 1029,2254 2617,2254 1708,0 2857,-1333 2857,-2990 0,-1455 -1092,-2325 -2381,-2731 1333,-267 2330,-914 2330,-2438 0,-210 -57,-997 -355,-997 -235,0 -648,463 -788,647 l -12,-44 c 146,-292 209,-572 209,-832 0,-940 -844,-1613 -1841,-1613 -585,0 -1080,216 -1080,591 0,178 108,228 235,228 64,0 146,-25 210,-25 685,0 1028,1003 1028,1568 0,178 -25,356 -108,515 -82,-686 -609,-1124 -1289,-1124 -222,0 -635,114 -635,393 0,312 604,7 604,616 0,420 -185,743 -642,743 -724,0 -1098,-1225 -1098,-1822 0,-1861 1943,-2819 3594,-2819 1575,0 3010,1098 3835,2387 -159,-101 -336,-165 -521,-165 -285,0 -755,279 -977,451 l 31,121 c 1105,755 2147,1905 2147,3308 0,63 -19,133 -32,197 -197,-407 -978,-832 -1486,-832 -400,0 -724,222 -724,616 0,273 476,305 654,489 368,374 508,914 508,1422 0,1746 -1327,2756 -1327,3582 0,584 464,952 1022,952 419,0 800,-203 1004,-571 1092,-2032 4102,-7430 6673,-7430 464,0 889,298 1334,298 197,0 273,-101 273,-285 0,-680 -495,-1251 -1156,-1385 610,-520 2636,-946 3423,-946 711,0 1759,458 2064,502 38,-51 70,-127 70,-191 0,-863 -407,-1041 -1055,-1327 -50,-25 -95,-44 -146,-63 502,-216 1385,-362 2337,-362 1886,0 4045,571 4045,2292 0,464 -222,1258 -781,1258 -184,0 -349,-58 -349,-267 0,-178 95,-349 95,-534 0,-260 -273,-362 -489,-362 -381,0 -844,261 -844,680 0,197 89,400 177,571 l -101,19 c -267,-63 -388,-285 -388,-539 0,-851 1016,-1188 1016,-1543 0,-165 -285,-235 -406,-235 -1073,0 -1772,863 -1772,1898 0,1302 915,2547 2280,2547 337,0 654,-121 940,-286 -95,375 -476,622 -476,806 0,197 235,210 381,210 311,0 616,-108 895,-241 1099,-527 972,-1347 1206,-2350 197,64 235,946 235,1143 0,807 -342,2496 -1409,2496 -318,0 -508,-375 -851,-375 -248,0 -254,305 -254,514 v 58 c 0,831 635,939 1124,965 -172,146 -870,425 -1099,425 -32,0 -44,0 -44,-12 0,-7 12,-26 12,-51 0,-451 -1670,-629 -1879,-1289 171,-527 673,-83 673,-1112 0,-660 -819,-1352 -1448,-1352 -267,0 -279,121 -482,203 l -64,-25 c 45,-146 70,-292 70,-445 0,-1270 -1149,-2406 -2426,-2406 -266,0 -1111,95 -1111,438 0,139 127,165 222,165 102,0 210,-64 324,-64 445,0 578,711 578,1054 0,788 -508,1315 -508,2026 0,146 159,584 286,838 -445,-635 -1626,-1778 -2490,-2044 -171,-58 -349,-96 -520,-96 -159,0 -610,51 -610,292 0,375 1150,1683 1397,2007 -724,-673 -1892,-1568 -2908,-1568 -1734,0 -3061,1377 -3061,3092 0,1562 1023,2553 2578,2553 1207,0 2235,-705 2235,-1994 0,-807 -781,-1651 -1600,-1651 -241,0 -406,165 -406,349 0,70 25,178 114,178 64,0 108,-45 153,-70 342,254 546,578 546,1010 0,216 -134,368 -331,431 -133,-406 70,-965 -533,-1079 -102,44 -127,121 -127,209 l 19,210 c 0,216 -165,451 -400,451 -432,0 -813,-457 -813,-870 0,-775 667,-1308 1410,-1308 2489,0 4108,3816 8077,3816 1683,0 3302,-717 4794,-1448 -12,58 -25,127 -25,191 0,406 635,1079 1035,1079 362,0 1168,-190 1168,-647 0,-64 -44,-159 -107,-159 -51,0 -210,63 -261,63 -216,-6 -527,-266 -527,-558 0,-1264 1003,-2280 1003,-4287 0,-1213 -368,-2298 -889,-3378 -266,-546 -844,-1048 -1212,-1549 438,-242 1206,-584 1206,-1156 0,-343 -495,-997 -851,-997 l -63,6 c -426,527 -375,1004 -1461,1004 -2248,0 -3600,-610 -5315,-610 -1454,0 -2794,413 -4508,1912 l -38,-51 c 457,-597 914,-1823 1720,-1823 121,0 229,38 369,38 228,0 387,-260 387,-470 0,-431 -394,-552 -756,-552 -1123,0 -2254,724 -2647,1784 6,-260 146,-685 146,-1009 0,-229 -229,-375 -445,-375 -597,0 -1264,1397 -1276,1943 z M 16046,673 c 134,0 172,146 172,337 0,355 -146,882 -146,978 0,152 44,215 165,222 514,-292 819,-1880 2496,-1880 209,0 501,26 603,248 -45,171 -242,203 -375,203 -89,0 -190,-19 -292,-19 -838,0 -1378,1626 -1873,2197 -203,241 -451,483 -673,680 l 152,260 c 1410,-1105 3620,-2623 5467,-2623 1575,0 2979,642 5468,642 1028,0 1022,-381 1498,-985 235,51 356,375 356,591 0,876 -1683,679 -1689,1048 95,222 756,622 990,908 1016,1232 1613,2692 1613,4311 0,1899 -920,2598 -920,4179 0,628 317,698 654,698 h 57 c -95,140 -241,223 -413,223 -565,0 -1003,-489 -1003,-1029 0,-216 197,-349 266,-540 l -82,-127 c -1029,927 -3861,1708 -5245,1708 -3747,0 -5588,-3734 -7938,-3734 -933,0 -1898,616 -1898,1632 0,673 495,1245 1187,1245 470,0 508,-102 508,-400 v -165 c 0,-51 6,-121 38,-159 203,13 242,203 242,394 0,114 -13,228 -13,311 0,133 13,387 203,387 279,0 673,-603 673,-870 0,-552 -197,-895 -667,-1174 l 51,-7 c 584,0 1143,711 1143,1270 0,1010 -1079,1689 -1994,1689 -1301,0 -2032,-984 -2032,-2229 0,-1485 1035,-2641 2553,-2641 1340,0 2845,1733 3461,1733 l 101,-12 19,-26 c -165,-520 -1136,-1860 -1479,-2375 76,-25 235,-25 247,-25 1836,0 3385,3962 4344,4089 95,-19 197,-101 216,-203 -89,-228 -369,-216 -369,-533 0,-343 375,-838 737,-845 l -13,191 c 0,1200 1867,1600 2788,1600 495,0 3150,-946 3150,-1480 l -19,-82 c -356,203 -566,279 -978,279 -324,0 -851,-209 -851,-590 l 12,-127 45,19 c 229,95 483,203 730,203 1175,0 1772,-1867 1772,-2813 0,-445 -311,-2045 -756,-2216 l -114,44 c -13,76 -19,165 -26,261 -95,971 -279,2851 -1384,2851 -95,0 -190,-19 -279,-45 266,-425 305,-819 393,-1301 -349,444 -869,666 -1435,666 -1174,0 -1936,-1079 -1936,-2184 0,-495 495,-1550 1098,-1550 95,0 261,20 318,39 -204,342 -927,558 -927,1466 0,604 285,927 889,927 120,0 241,-19 349,-63 -89,-279 -280,-432 -280,-749 0,-286 83,-413 388,-413 70,0 139,13 203,19 13,70 19,133 19,197 0,159 -38,292 -38,470 0,330 565,438 819,438 775,0 1105,-1067 1105,-1708 0,-1943 -2216,-2648 -4356,-2648 -1461,0 -2889,324 -3569,819 515,25 1937,546 1937,991 0,25 -6,50 -13,76 -266,-83 -1175,-369 -1816,-369 -743,0 -3994,724 -4210,1493 527,51 1657,400 1657,1041 l -63,32 c -406,-89 -768,-324 -1200,-324 -2801,0 -5709,5004 -6744,7258 -114,-533 -584,-756 -1067,-756 -31,0 -63,0 -95,0 470,-787 965,-1625 965,-2565 0,-730 -330,-1340 -895,-1791 114,-76 184,-209 184,-343 0,-38 -6,-76 -19,-114 l 76,-19 c 686,0 1137,775 1277,1340 l 19,19 c 222,-203 304,-889 304,-1187 0,-1410 -876,-2445 -1936,-3252 146,-139 362,-165 552,-165 794,0 838,534 1302,1029 l 82,-229 C 9950,4750 9830,4578 9716,4407 9569,4197 9436,3981 9315,3759 8541,2299 6883,1187 5213,1187 c -2013,0 -3949,1118 -3949,3334 0,991 571,2115 1689,2115 520,0 794,-604 794,-1054 0,-318 -127,-610 -413,-769 44,-12 95,-19 139,-19 426,0 1067,616 1067,1029 0,83 -101,165 -171,203 l 32,121 h 25 c 25,6 95,6 121,6 457,0 609,-794 609,-1175 0,-603 -387,-1638 -1073,-1733 172,-45 330,-102 483,-102 933,0 1295,781 1295,1600 0,324 -57,661 -159,953 l 45,127 44,6 c 305,-241 565,-755 972,-774 63,133 101,285 101,438 0,1219 -1263,2273 -2463,2273 -280,0 -547,-102 -820,-133 l 7,31 c 1308,928 3283,1156 3283,3112 0,1429 -1086,2515 -2515,2515 -1264,0 -2146,-458 -2146,-1836 0,-571 298,-1346 914,-1346 57,0 115,7 172,19 -331,343 -546,623 -546,1124 0,851 520,1486 1390,1486 89,0 191,-32 216,-127 -101,-343 -400,-597 -400,-965 0,-235 184,-375 387,-445 l 13,39 c 140,311 311,685 699,685 558,0 1143,-679 1143,-1219 0,-1752 -3245,-2514 -4496,-3232 70,381 140,775 140,1162 0,375 -242,705 -559,705 -140,0 -292,-13 -292,-172 0,-260 139,-501 139,-768 C 1130,7277 457,6382 457,5226 457,2496 2369,698 5061,698 c 1562,0 2946,699 4007,1810 l 133,-362 c -63,-209 -108,-419 -108,-641 0,-673 845,-883 1385,-883 374,0 1257,210 1257,692 0,102 -70,223 -203,267 -331,-190 -667,-343 -1048,-343 -743,0 -851,813 -851,1372 0,476 152,1194 476,1556 83,-451 445,-1474 997,-1474 165,0 311,102 426,223 -483,463 -680,743 -680,1416 0,603 241,1149 241,1759 0,1219 -920,2578 -920,3181 l 51,140 25,6 c 248,-171 552,-673 711,-959 807,-1467 3359,-3486 3359,-5270 0,-572 -533,-883 -946,-1188 102,-82 229,-152 368,-152 604,0 826,768 1131,1073 12,-762 749,-2248 1174,-2248 z m 9830,10763 c -6,242 -489,248 -692,248 -756,0 -2165,-457 -2165,-1359 0,-82 6,-165 32,-254 -20,-140 -159,-184 -286,-184 -521,0 -1131,387 -1194,933 -229,-254 -876,-1778 -876,-2076 0,-813 476,-1454 476,-2356 0,-806 -216,-724 -483,-990 38,-58 115,-70 184,-70 940,0 1988,1098 1988,2032 0,546 -235,1270 -889,1270 -178,0 -413,-64 -451,-273 -32,63 -76,165 -76,235 0,311 311,438 578,438 419,0 946,-261 997,-718 171,-108 374,-209 578,-209 431,0 1181,539 1181,1003 0,616 -845,521 -845,1041 0,635 1454,1093 1943,1289 z M 7772,13100 c 0,-267 381,-457 616,-457 273,0 515,330 515,590 0,261 -210,458 -464,458 -400,0 -667,-172 -667,-591 z m 197,-5677 115,121 v 25 c 0,127 -102,242 -229,242 l -108,-115 c 6,-139 76,-260 222,-273 z"
   id="path3905"
   inkscape:connector-curvature="0"
   style="fill:#000000;fill-rule:nonzero" />
 </g>
</svg>